# xmcd
#
# Track frame offsets: 
#        150
#        17888
#        39684
#        71511
#        91889
#        112696
#        159107
#        180587
#
# Disc length: 2730 seconds
#
# Revision: 0
# Processed by: cddbd v1.5.2PL0 Copyright (c) Steve Scherf et al.
# Submitted via: ExactAudioCopy v1.0b1
#
DISCID=550aa808
DTITLE=Rush  - Allentown Fair Allentown Pa - August 31 2010 - Disc 2
DYEAR=1900
DGENRE=
TTITLE0=Intro Film "Rash: The Real History Of Rush - Episode No. 17: .
TTITLE0=And Rock And Roll Is My Name
TTITLE1=Tom Sawyer
TTITLE2=Red Barchetta
TTITLE3=Yyz
TTITLE4=Limelight
TTITLE5=The Camera Eye
TTITLE6=Witch Hunt (Part III of Fear)
TTITLE7=Vital Signs
EXTD=
EXTT0=
EXTT1=
EXTT2=
EXTT3=
EXTT4=
EXTT5=
EXTT6=
EXTT7=
PLAYORDER=
